<svg width="40" height="40" viewBox="0 0 40 40" fill="none" xmlns="http://www.w3.org/2000/svg">
<path d="M20 33.5999C12.48 33.5999 6.40002 27.5199 6.40002 19.9999C6.40002 12.4799 12.48 6.3999 20 6.3999C27.52 6.3999 33.6 12.4799 33.6 19.9999C33.6 27.5199 27.52 33.5999 20 33.5999ZM20 7.5C13.36 7.5 7.50012 13.3599 7.50012 19.9999C7.50012 26.6399 13.36 32.5 20 32.5C26.64 32.5 32.5001 26.6399 32.5001 19.9999C32.5001 13.3599 26.64 7.5 20 7.5Z" fill="#EBEBEB"/>
<path d="M20.24 27.7602L12.48 20.0002L20.24 12.2402L21.36 13.3602L14.72 20.0002L21.36 26.6402L20.24 27.7602Z" fill="#EBEBEB"/>
<path d="M13.6 19.2002H27.2V20.8002H13.6V19.2002Z" fill="#EBEBEB"/>
</svg>
