<svg width="40" height="40" viewBox="0 0 40 40" fill="none" xmlns="http://www.w3.org/2000/svg">
<path d="M20 33.5999C27.52 33.5999 33.6 27.5199 33.6 19.9999C33.6 12.4799 27.52 6.3999 20 6.3999C12.48 6.3999 6.39997 12.4799 6.39997 19.9999C6.39997 27.5199 12.48 33.5999 20 33.5999ZM20 7.5C26.64 7.5 32.4999 13.3599 32.4999 19.9999C32.4999 26.6399 26.64 32.5 20 32.5C13.36 32.5 7.49988 26.6399 7.49988 19.9999C7.49988 13.3599 13.36 7.5 20 7.5Z" fill="#EBEBEB"/>
<path d="M19.76 27.7602L27.52 20.0002L19.76 12.2402L18.64 13.3602L25.28 20.0002L18.64 26.6402L19.76 27.7602Z" fill="#EBEBEB"/>
<path d="M26.4 19.2002H12.8V20.8002H26.4V19.2002Z" fill="#EBEBEB"/>
</svg>
