<svg width="32" height="33" viewBox="0 0 32 33" fill="none" xmlns="http://www.w3.org/2000/svg">
<path d="M11.1475 1.85254C7.95019 2.96172 5.19285 5.06696 3.28046 7.85905C1.36808 10.6511 0.401465 13.9829 0.522592 17.365C0.643719 20.747 1.84621 24.0011 3.95343 26.6492C6.06065 29.2973 8.96153 31.1999 12.23 32.0775C14.8798 32.7613 17.656 32.7913 20.32 32.165C22.7333 31.623 24.9644 30.4635 26.795 28.8C28.7002 27.0159 30.0831 24.7462 30.795 22.235C31.5688 19.5042 31.7065 16.6324 31.1975 13.84H16.3175V20.0125H24.935C24.7628 20.997 24.3937 21.9366 23.8499 22.7751C23.306 23.6136 22.5986 24.3338 21.77 24.8925C20.7177 25.5886 19.5315 26.057 18.2875 26.2675C17.0398 26.4995 15.7601 26.4995 14.5125 26.2675C13.248 26.0061 12.0517 25.4842 11 24.735C9.31036 23.539 8.04168 21.8399 7.37499 19.88C6.69702 17.8835 6.69702 15.7191 7.37499 13.7225C7.84955 12.3231 8.63407 11.0489 9.66999 9.99504C10.8555 8.76691 12.3563 7.88904 14.0079 7.45773C15.6594 7.02643 17.3979 7.05837 19.0325 7.55004C20.3094 7.94202 21.4771 8.62689 22.4425 9.55004C23.4142 8.58338 24.3842 7.61421 25.3525 6.64254C25.8525 6.12004 26.3975 5.62254 26.89 5.08754C25.4164 3.71623 23.6867 2.64919 21.8 1.94754C18.3642 0.700019 14.6049 0.666493 11.1475 1.85254Z" fill="white"/>
<path d="M11.1474 1.85254C14.6046 0.665681 18.3639 0.698324 21.7999 1.94504C23.687 2.65145 25.4159 3.72363 26.8874 5.10004C26.3874 5.63504 25.8599 6.13504 25.3499 6.65504C24.3799 7.62337 23.4108 8.58837 22.4424 9.55004C21.4771 8.62688 20.3094 7.94202 19.0324 7.55004C17.3984 7.05664 15.66 7.02286 14.008 7.45239C12.356 7.88193 10.8542 8.75819 9.66744 9.98504C8.63153 11.0389 7.84701 12.3131 7.37244 13.7125L2.18994 9.70004C4.04496 6.02144 7.25681 3.2076 11.1474 1.85254Z" fill="#E33629"/>
<path d="M0.814998 13.6751C1.09355 12.2946 1.55601 10.9576 2.19 9.70007L7.3725 13.7226C6.69453 15.7191 6.69453 17.8836 7.3725 19.8801C5.64583 21.2134 3.91833 22.5534 2.19 23.9001C0.602874 20.7409 0.118829 17.1413 0.814998 13.6751Z" fill="#F8BD00"/>
<path d="M16.3175 13.8375H31.1975C31.7065 16.6299 31.5688 19.5017 30.795 22.2325C30.0831 24.7437 28.7002 27.0134 26.795 28.7975C25.1225 27.4925 23.4425 26.1975 21.77 24.8925C22.5992 24.3332 23.3069 23.6123 23.8508 22.7729C24.3946 21.9335 24.7634 20.9929 24.935 20.0075H16.3175C16.315 17.9525 16.3175 15.895 16.3175 13.8375Z" fill="#587DBD"/>
<path d="M2.1875 23.9C3.91583 22.5667 5.64333 21.2267 7.37 19.88C8.03802 21.8405 9.30851 23.5397 11 24.735C12.055 25.4807 13.2538 25.9983 14.52 26.255C15.7676 26.487 17.0474 26.487 18.295 26.255C19.539 26.0444 20.7252 25.5761 21.7775 24.88C23.45 26.185 25.13 27.48 26.8025 28.785C24.9722 30.4493 22.741 31.6097 20.3275 32.1525C17.6635 32.7788 14.8873 32.7487 12.2375 32.065C10.1418 31.5054 8.18419 30.519 6.4875 29.1675C4.69165 27.7417 3.22489 25.9449 2.1875 23.9Z" fill="#319F43"/>
</svg>
